<?xml version="1.0" encoding="utf-8"?>
<!-- Generator: Adobe Illustrator 23.0.0, SVG Export Plug-In . SVG Version: 6.00 Build 0)  -->
<svg version="1.1" id="Bold" xmlns="http://www.w3.org/2000/svg" xmlns:xlink="http://www.w3.org/1999/xlink" x="0px" y="0px"
	 viewBox="0 0 512 512" style="enable-background:new 0 0 512 512;" xml:space="preserve">
<style type="text/css">
	.st0{fill:#FEFEFE;}
</style>
<g id="Слой_x0020_1">
	<g id="_1657971778800">
		<path class="st0" d="M199.5,356.9c-86.4,0-157-70.6-157-157s70.6-157,157-157s157,70.6,157,157
			C356.4,286.3,285.8,356.9,199.5,356.9L199.5,356.9z M481.8,511.9c10.4-9.4,20.2-19.3,29.6-29.6L354,324.3
			c27.6-34.1,44.4-77.5,44.4-124.9C398.4,89.8,309,1,200,1C90.4,1,1.5,89.8,1.5,199.4S90.4,397.8,200,397.8
			c47.4,0,90.8-16.8,124.9-44.4L481.8,511.9L481.8,511.9z"/>
	</g>
</g>
</svg>
