<?xml version="1.0" encoding="utf-8"?>
<!-- Generator: Adobe Illustrator 23.0.0, SVG Export Plug-In . SVG Version: 6.00 Build 0)  -->
<svg version="1.1" id="Bold" xmlns="http://www.w3.org/2000/svg" xmlns:xlink="http://www.w3.org/1999/xlink" x="0px" y="0px"
	 viewBox="0 0 512 512" style="enable-background:new 0 0 512 512;" xml:space="preserve">
<style type="text/css">
	.st0{fill-rule:evenodd;clip-rule:evenodd;fill:#FEFEFE;}
</style>
<g id="Слой_x0020_1">
	<g id="_1657971732304">
		<path class="st0" d="M256.2,125.1c72.6,0,131,58.9,131,131s-58.9,131-131,131c-72.6,0-131-58.9-131-131S184.1,125.1,256.2,125.1z
			 M455.6,105.7c-4.2-11-10.5-21-18.9-29.5c-8.4-8.4-18.4-15.3-29.5-18.9c-8.9-3.7-22.6-7.9-47.4-8.9c-26.8-1.1-35.3-1.6-103.1-1.6
			c-68.4,0-76.3,0.5-103.1,1.6c-24.7,1.1-38.4,5.3-47.4,8.9c-11,4.2-21,10.5-29.5,18.9S62,94.6,57.8,105.7
			c-3.7,8.9-7.9,22.6-8.9,47.4c-1.1,26.8-1.6,34.7-1.6,103.1s0,76.3,1.6,103.1c1.1,24.7,5.3,38.4,8.9,47.4c4.2,11,10.5,21,18.9,29.5
			c8.4,8.4,18.4,15.3,29.5,18.9c8.9,3.7,22.6,7.9,47.4,8.9c26.8,1.1,34.7,1.6,103.1,1.6s76.3,0,103.1-1.6
			c24.7-1.1,38.4-5.3,47.4-8.9c22.1-8.4,40-26.3,48.4-48.4c3.7-8.9,7.9-22.6,8.9-47.4c1.1-26.8,1.6-34.7,1.6-103.1
			s-0.5-76.3-1.6-103.1C463,128.3,458.8,115.1,455.6,105.7z M510.3,361.9c-1.1,27.4-5.3,45.8-12.1,62.1
			c-13.2,34.2-40.5,61.6-74.7,74.7c-16.3,6.3-34.7,10.5-62.1,11.6c-27.4,1.1-35.8,1.6-105.2,1.6s-77.9-0.5-105.2-1.6
			c-27.4-1.1-45.8-5.8-62.1-11.6c-16.8-6.3-32.6-16.3-45.2-29.5c-13.2-12.6-23.2-28.4-29.5-45.2c-6.3-16.3-10.5-34.7-11.6-62.1
			C1,334.6,1,326.1,1,256.7s0.5-77.9,1.6-105.2s5.3-45.8,11.6-62.1c6.3-16.8,16.3-32.6,29.5-45.2C56.2,31,72,21,88.9,14.7
			C105.2,8.3,123.6,4.1,151,2.6C178.3,1.5,186.7,1,256.2,1s77.9,0.5,105.2,1.6c27.4,1.1,45.8,5.8,62.1,12.1
			c16.8,6.3,32.6,16.3,45.2,29.5c13.2,12.6,23.2,28.4,29.5,45.2c6.3,16.3,10.5,34.7,12.1,62.1c1.1,27.4,1.6,35.8,1.6,105.2
			C511.9,325.6,511.4,334.6,510.3,361.9L510.3,361.9z M392.5,150.9c-16.8,0-30.5-13.7-30.5-30.5c0-16.8,13.7-30.5,30.5-30.5
			c16.8,0,30.5,13.7,30.5,30.5C423.5,137.2,409.8,150.9,392.5,150.9z M256.2,171.4c46.8,0,85.2,37.9,85.2,85.2
			c0,46.8-37.9,85.2-85.2,85.2S171,304,171,256.7C171.5,209.3,209.4,171.4,256.2,171.4z"/>
	</g>
</g>
</svg>
